G75*
G70*
%OFA0B0*%
%FSLAX24Y24*%
%IPPOS*%
%LPD*%
%AMOC8*
5,1,8,0,0,1.08239X$1,22.5*
%
%ADD10OC8,0.0480*%
%ADD11C,0.0480*%
%ADD12OC8,0.0600*%
%ADD13C,0.0376*%
%ADD14C,0.0100*%
%ADD15OC8,0.0650*%
%ADD16OC8,0.0376*%
%ADD17OC8,0.0709*%
D10*
X002650Y006650D03*
X003650Y006650D03*
X010650Y006650D03*
X011650Y006650D03*
X017150Y006650D03*
X018150Y006650D03*
X020650Y006650D03*
X020650Y005650D03*
X021650Y005650D03*
X021650Y006650D03*
X021650Y008650D03*
X020650Y008650D03*
X020650Y010650D03*
X019650Y010650D03*
X026150Y010650D03*
X026150Y011650D03*
X012150Y016650D03*
X011150Y016650D03*
D11*
X007890Y016650D02*
X007410Y016650D01*
X007410Y014650D02*
X007890Y014650D01*
X022410Y003650D02*
X022890Y003650D01*
X022890Y001650D02*
X022410Y001650D01*
D12*
X015650Y017150D03*
X015650Y018150D03*
X014650Y018150D03*
X014650Y017150D03*
X013650Y017150D03*
X013650Y018150D03*
D13*
X016650Y014150D03*
X014150Y012150D03*
X012650Y012150D03*
X021650Y012150D03*
X023650Y012150D03*
D14*
X021650Y012150D02*
X014150Y012150D01*
X012650Y012150D02*
X016650Y013150D01*
X016650Y014150D01*
D15*
X001150Y010150D03*
D16*
X001150Y008650D03*
X001150Y012150D03*
X024150Y008150D03*
D17*
X001150Y013650D03*
M02*
