%
M48
M72
T01C0.0236
T02C0.0320
T03C0.0400
T04C0.0433
T05C0.0472
%
T01
X1150Y8650
X1150Y12150
X12650Y12150
X14150Y12150
X16650Y14150
X21650Y12150
X23650Y12150
X24150Y8150
T02
X2650Y6650
X3650Y6650
X10650Y6650
X11650Y6650
X17150Y6650
X18150Y6650
X20650Y6650
X20650Y5650
X21650Y5650
X21650Y6650
X21650Y8650
X20650Y8650
X20650Y10650
X19650Y10650
X26150Y10650
X26150Y11650
X22650Y3650
X22650Y1650
X7650Y14650
X7650Y16650
X11150Y16650
X12150Y16650
T03
X13650Y17150
X13650Y18150
X14650Y18150
X14650Y17150
X15650Y17150
X15650Y18150
T04
X1150Y10150
T05
X1150Y13650
M30
