G75*
G70*
%OFA0B0*%
%FSLAX24Y24*%
%IPPOS*%
%LPD*%
%AMOC8*
5,1,8,0,0,1.08239X$1,22.5*
%
%ADD10C,0.0059*%
%ADD11C,0.0197*%
%ADD12R,0.1181X0.1181*%
%ADD13R,0.2953X0.1260*%
%ADD14R,0.3071X0.1575*%
%ADD15OC8,0.0480*%
%ADD16R,0.0866X0.0236*%
%ADD17R,0.0236X0.0866*%
%ADD18C,0.0480*%
%ADD19OC8,0.0600*%
%ADD20C,0.0100*%
%ADD21C,0.0376*%
%ADD22C,0.0060*%
%ADD23OC8,0.0650*%
%ADD24OC8,0.0376*%
%ADD25OC8,0.0709*%
D10*
X013136Y012732D02*
X013136Y012950D01*
X013196Y012950D01*
X013196Y012732D01*
X013136Y012732D01*
X013136Y012790D02*
X013196Y012790D01*
X013196Y012848D02*
X013136Y012848D01*
X013136Y012906D02*
X013196Y012906D01*
X013333Y012950D02*
X013333Y012732D01*
X013333Y012950D02*
X013393Y012950D01*
X013393Y012732D01*
X013333Y012732D01*
X013333Y012790D02*
X013393Y012790D01*
X013393Y012848D02*
X013333Y012848D01*
X013333Y012906D02*
X013393Y012906D01*
X013529Y012950D02*
X013529Y012732D01*
X013529Y012950D02*
X013589Y012950D01*
X013589Y012732D01*
X013529Y012732D01*
X013529Y012790D02*
X013589Y012790D01*
X013589Y012848D02*
X013529Y012848D01*
X013529Y012906D02*
X013589Y012906D01*
X013726Y012950D02*
X013726Y012732D01*
X013726Y012950D02*
X013786Y012950D01*
X013786Y012732D01*
X013726Y012732D01*
X013726Y012790D02*
X013786Y012790D01*
X013786Y012848D02*
X013726Y012848D01*
X013726Y012906D02*
X013786Y012906D01*
X013923Y012950D02*
X013923Y012732D01*
X013923Y012950D02*
X013983Y012950D01*
X013983Y012732D01*
X013923Y012732D01*
X013923Y012790D02*
X013983Y012790D01*
X013983Y012848D02*
X013923Y012848D01*
X013923Y012906D02*
X013983Y012906D01*
X014120Y012950D02*
X014120Y012732D01*
X014120Y012950D02*
X014180Y012950D01*
X014180Y012732D01*
X014120Y012732D01*
X014120Y012790D02*
X014180Y012790D01*
X014180Y012848D02*
X014120Y012848D01*
X014120Y012906D02*
X014180Y012906D01*
X014317Y012950D02*
X014317Y012732D01*
X014317Y012950D02*
X014377Y012950D01*
X014377Y012732D01*
X014317Y012732D01*
X014317Y012790D02*
X014377Y012790D01*
X014377Y012848D02*
X014317Y012848D01*
X014317Y012906D02*
X014377Y012906D01*
X014514Y012950D02*
X014514Y012732D01*
X014514Y012950D02*
X014574Y012950D01*
X014574Y012732D01*
X014514Y012732D01*
X014514Y012790D02*
X014574Y012790D01*
X014574Y012848D02*
X014514Y012848D01*
X014514Y012906D02*
X014574Y012906D01*
X014711Y012950D02*
X014711Y012732D01*
X014711Y012950D02*
X014771Y012950D01*
X014771Y012732D01*
X014711Y012732D01*
X014711Y012790D02*
X014771Y012790D01*
X014771Y012848D02*
X014711Y012848D01*
X014711Y012906D02*
X014771Y012906D01*
X014907Y012950D02*
X014907Y012732D01*
X014907Y012950D02*
X014967Y012950D01*
X014967Y012732D01*
X014907Y012732D01*
X014907Y012790D02*
X014967Y012790D01*
X014967Y012848D02*
X014907Y012848D01*
X014907Y012906D02*
X014967Y012906D01*
X015104Y012950D02*
X015104Y012732D01*
X015104Y012950D02*
X015164Y012950D01*
X015164Y012732D01*
X015104Y012732D01*
X015104Y012790D02*
X015164Y012790D01*
X015164Y012848D02*
X015104Y012848D01*
X015104Y012906D02*
X015164Y012906D01*
X015350Y013136D02*
X015350Y013196D01*
X015568Y013196D01*
X015568Y013136D01*
X015350Y013136D01*
X015350Y013194D02*
X015568Y013194D01*
X015350Y013333D02*
X015350Y013393D01*
X015568Y013393D01*
X015568Y013333D01*
X015350Y013333D01*
X015350Y013391D02*
X015568Y013391D01*
X015350Y013529D02*
X015350Y013589D01*
X015568Y013589D01*
X015568Y013529D01*
X015350Y013529D01*
X015350Y013587D02*
X015568Y013587D01*
X015350Y013726D02*
X015350Y013786D01*
X015568Y013786D01*
X015568Y013726D01*
X015350Y013726D01*
X015350Y013784D02*
X015568Y013784D01*
X015350Y013923D02*
X015350Y013983D01*
X015568Y013983D01*
X015568Y013923D01*
X015350Y013923D01*
X015350Y013981D02*
X015568Y013981D01*
X015350Y014120D02*
X015350Y014180D01*
X015568Y014180D01*
X015568Y014120D01*
X015350Y014120D01*
X015350Y014178D02*
X015568Y014178D01*
X015350Y014317D02*
X015350Y014377D01*
X015568Y014377D01*
X015568Y014317D01*
X015350Y014317D01*
X015350Y014375D02*
X015568Y014375D01*
X015350Y014514D02*
X015350Y014574D01*
X015568Y014574D01*
X015568Y014514D01*
X015350Y014514D01*
X015350Y014572D02*
X015568Y014572D01*
X015350Y014711D02*
X015350Y014771D01*
X015568Y014771D01*
X015568Y014711D01*
X015350Y014711D01*
X015350Y014769D02*
X015568Y014769D01*
X015350Y014907D02*
X015350Y014967D01*
X015568Y014967D01*
X015568Y014907D01*
X015350Y014907D01*
X015350Y014965D02*
X015568Y014965D01*
X015350Y015104D02*
X015350Y015164D01*
X015568Y015164D01*
X015568Y015104D01*
X015350Y015104D01*
X015350Y015162D02*
X015568Y015162D01*
X015104Y015350D02*
X015104Y015568D01*
X015164Y015568D01*
X015164Y015350D01*
X015104Y015350D01*
X015104Y015408D02*
X015164Y015408D01*
X015164Y015466D02*
X015104Y015466D01*
X015104Y015524D02*
X015164Y015524D01*
X014907Y015568D02*
X014907Y015350D01*
X014907Y015568D02*
X014967Y015568D01*
X014967Y015350D01*
X014907Y015350D01*
X014907Y015408D02*
X014967Y015408D01*
X014967Y015466D02*
X014907Y015466D01*
X014907Y015524D02*
X014967Y015524D01*
X014711Y015568D02*
X014711Y015350D01*
X014711Y015568D02*
X014771Y015568D01*
X014771Y015350D01*
X014711Y015350D01*
X014711Y015408D02*
X014771Y015408D01*
X014771Y015466D02*
X014711Y015466D01*
X014711Y015524D02*
X014771Y015524D01*
X014514Y015568D02*
X014514Y015350D01*
X014514Y015568D02*
X014574Y015568D01*
X014574Y015350D01*
X014514Y015350D01*
X014514Y015408D02*
X014574Y015408D01*
X014574Y015466D02*
X014514Y015466D01*
X014514Y015524D02*
X014574Y015524D01*
X014317Y015568D02*
X014317Y015350D01*
X014317Y015568D02*
X014377Y015568D01*
X014377Y015350D01*
X014317Y015350D01*
X014317Y015408D02*
X014377Y015408D01*
X014377Y015466D02*
X014317Y015466D01*
X014317Y015524D02*
X014377Y015524D01*
X014120Y015568D02*
X014120Y015350D01*
X014120Y015568D02*
X014180Y015568D01*
X014180Y015350D01*
X014120Y015350D01*
X014120Y015408D02*
X014180Y015408D01*
X014180Y015466D02*
X014120Y015466D01*
X014120Y015524D02*
X014180Y015524D01*
X013923Y015568D02*
X013923Y015350D01*
X013923Y015568D02*
X013983Y015568D01*
X013983Y015350D01*
X013923Y015350D01*
X013923Y015408D02*
X013983Y015408D01*
X013983Y015466D02*
X013923Y015466D01*
X013923Y015524D02*
X013983Y015524D01*
X013726Y015568D02*
X013726Y015350D01*
X013726Y015568D02*
X013786Y015568D01*
X013786Y015350D01*
X013726Y015350D01*
X013726Y015408D02*
X013786Y015408D01*
X013786Y015466D02*
X013726Y015466D01*
X013726Y015524D02*
X013786Y015524D01*
X013529Y015568D02*
X013529Y015350D01*
X013529Y015568D02*
X013589Y015568D01*
X013589Y015350D01*
X013529Y015350D01*
X013529Y015408D02*
X013589Y015408D01*
X013589Y015466D02*
X013529Y015466D01*
X013529Y015524D02*
X013589Y015524D01*
X013333Y015568D02*
X013333Y015350D01*
X013333Y015568D02*
X013393Y015568D01*
X013393Y015350D01*
X013333Y015350D01*
X013333Y015408D02*
X013393Y015408D01*
X013393Y015466D02*
X013333Y015466D01*
X013333Y015524D02*
X013393Y015524D01*
X013136Y015568D02*
X013136Y015350D01*
X013136Y015568D02*
X013196Y015568D01*
X013196Y015350D01*
X013136Y015350D01*
X013136Y015408D02*
X013196Y015408D01*
X013196Y015466D02*
X013136Y015466D01*
X013136Y015524D02*
X013196Y015524D01*
X012732Y015164D02*
X012732Y015104D01*
X012732Y015164D02*
X012950Y015164D01*
X012950Y015104D01*
X012732Y015104D01*
X012732Y015162D02*
X012950Y015162D01*
X012732Y014967D02*
X012732Y014907D01*
X012732Y014967D02*
X012950Y014967D01*
X012950Y014907D01*
X012732Y014907D01*
X012732Y014965D02*
X012950Y014965D01*
X012732Y014771D02*
X012732Y014711D01*
X012732Y014771D02*
X012950Y014771D01*
X012950Y014711D01*
X012732Y014711D01*
X012732Y014769D02*
X012950Y014769D01*
X012732Y014574D02*
X012732Y014514D01*
X012732Y014574D02*
X012950Y014574D01*
X012950Y014514D01*
X012732Y014514D01*
X012732Y014572D02*
X012950Y014572D01*
X012732Y014377D02*
X012732Y014317D01*
X012732Y014377D02*
X012950Y014377D01*
X012950Y014317D01*
X012732Y014317D01*
X012732Y014375D02*
X012950Y014375D01*
X012732Y014180D02*
X012732Y014120D01*
X012732Y014180D02*
X012950Y014180D01*
X012950Y014120D01*
X012732Y014120D01*
X012732Y014178D02*
X012950Y014178D01*
X012732Y013983D02*
X012732Y013923D01*
X012732Y013983D02*
X012950Y013983D01*
X012950Y013923D01*
X012732Y013923D01*
X012732Y013981D02*
X012950Y013981D01*
X012732Y013786D02*
X012732Y013726D01*
X012732Y013786D02*
X012950Y013786D01*
X012950Y013726D01*
X012732Y013726D01*
X012732Y013784D02*
X012950Y013784D01*
X012732Y013589D02*
X012732Y013529D01*
X012732Y013589D02*
X012950Y013589D01*
X012950Y013529D01*
X012732Y013529D01*
X012732Y013587D02*
X012950Y013587D01*
X012732Y013393D02*
X012732Y013333D01*
X012732Y013393D02*
X012950Y013393D01*
X012950Y013333D01*
X012732Y013333D01*
X012732Y013391D02*
X012950Y013391D01*
X012732Y013196D02*
X012732Y013136D01*
X012732Y013196D02*
X012950Y013196D01*
X012950Y013136D01*
X012732Y013136D01*
X012732Y013194D02*
X012950Y013194D01*
D11*
X013264Y013264D02*
X013264Y015036D01*
X015036Y015036D01*
X015036Y013264D01*
X013264Y013264D01*
X013264Y013460D02*
X015036Y013460D01*
X015036Y013656D02*
X013264Y013656D01*
X013264Y013852D02*
X015036Y013852D01*
X015036Y014048D02*
X013264Y014048D01*
X013264Y014244D02*
X015036Y014244D01*
X015036Y014440D02*
X013264Y014440D01*
X013264Y014636D02*
X015036Y014636D01*
X015036Y014832D02*
X013264Y014832D01*
X013264Y015028D02*
X015036Y015028D01*
D12*
X015906Y002650D03*
X013394Y002650D03*
X008906Y002650D03*
X006394Y002650D03*
X001906Y002650D03*
X020394Y002650D03*
D13*
X019626Y003979D03*
X016674Y003979D03*
X016674Y001311D03*
X019626Y001311D03*
X012626Y001311D03*
X009674Y001311D03*
X009674Y003979D03*
X012626Y003979D03*
X005626Y003979D03*
X002674Y003979D03*
X002674Y001311D03*
X005626Y001311D03*
D14*
X004150Y002650D03*
X011150Y002650D03*
X018150Y002650D03*
D15*
X020650Y005650D03*
X020650Y006650D03*
X021650Y006650D03*
X021650Y005650D03*
X021650Y008650D03*
X020650Y008650D03*
X020650Y010650D03*
X019650Y010650D03*
X018150Y006650D03*
X017150Y006650D03*
X011650Y006650D03*
X010650Y006650D03*
X003650Y006650D03*
X002650Y006650D03*
X011150Y016650D03*
X012150Y016650D03*
X026150Y011650D03*
X026150Y010650D03*
D16*
X016343Y010650D03*
X016343Y010150D03*
X016343Y009650D03*
X016343Y009150D03*
X016343Y008650D03*
X012957Y008650D03*
X012957Y009150D03*
X012957Y009650D03*
X012957Y010150D03*
X012957Y010650D03*
D17*
X013650Y011343D03*
X014150Y011343D03*
X014650Y011343D03*
X015150Y011343D03*
X015650Y011343D03*
X015650Y007957D03*
X015150Y007957D03*
X014650Y007957D03*
X014150Y007957D03*
X013650Y007957D03*
D18*
X007890Y014650D02*
X007410Y014650D01*
X007410Y016650D02*
X007890Y016650D01*
X022410Y003650D02*
X022890Y003650D01*
X022890Y001650D02*
X022410Y001650D01*
D19*
X015650Y017150D03*
X015650Y018150D03*
X014650Y018150D03*
X014650Y017150D03*
X013650Y017150D03*
X013650Y018150D03*
D20*
X000350Y010650D02*
X000350Y000350D01*
X024320Y000350D01*
X024320Y007898D01*
X024310Y007888D01*
X024310Y007814D01*
X024319Y007763D01*
X024310Y007750D01*
X024310Y007734D01*
X024273Y007697D01*
X024243Y007654D01*
X024228Y007651D01*
X024216Y007640D01*
X024164Y007640D01*
X024113Y007631D01*
X024100Y007640D01*
X024084Y007640D01*
X024047Y007677D01*
X022140Y009007D01*
X022140Y006942D01*
X022058Y006860D01*
X021996Y006798D01*
X022000Y006795D01*
X022000Y006505D01*
X021795Y006300D01*
X021505Y006300D01*
X021440Y006365D01*
X021440Y006058D01*
X021502Y005996D01*
X021505Y006000D01*
X021795Y006000D01*
X022000Y005795D01*
X022000Y005505D01*
X021795Y005300D01*
X021505Y005300D01*
X021300Y005505D01*
X021300Y005795D01*
X021304Y005798D01*
X021242Y005860D01*
X021160Y005942D01*
X021160Y008358D01*
X021304Y008502D01*
X021300Y008505D01*
X021300Y008795D01*
X021505Y009000D01*
X021795Y009000D01*
X021860Y008935D01*
X021860Y009203D01*
X021854Y009207D01*
X021850Y009229D01*
X020790Y009896D01*
X020790Y009000D01*
X020795Y009000D01*
X021000Y008795D01*
X021000Y008505D01*
X020795Y008300D01*
X020505Y008300D01*
X020300Y008505D01*
X020300Y008795D01*
X020505Y009000D01*
X020510Y009000D01*
X020510Y010134D01*
X020501Y010176D01*
X020510Y010190D01*
X020510Y010300D01*
X020505Y010300D01*
X020300Y010505D01*
X020300Y010650D01*
X020000Y010650D01*
X020000Y010505D01*
X019795Y010300D01*
X019505Y010300D01*
X019300Y010505D01*
X019300Y010650D01*
X016886Y010650D01*
X016886Y010486D01*
X016822Y010422D01*
X015864Y010422D01*
X015800Y010486D01*
X015800Y010650D01*
X013500Y010650D01*
X013500Y010486D01*
X013436Y010422D01*
X012478Y010422D01*
X012414Y010486D01*
X012414Y010650D01*
X012040Y010650D01*
X012040Y008574D01*
X013422Y007624D01*
X013422Y008422D01*
X012478Y008422D01*
X012414Y008486D01*
X012414Y008814D01*
X012478Y008878D01*
X013436Y008878D01*
X013500Y008814D01*
X013500Y008500D01*
X013814Y008500D01*
X013878Y008436D01*
X013878Y007920D01*
X013922Y007876D01*
X013922Y008436D01*
X013986Y008500D01*
X014314Y008500D01*
X014378Y008436D01*
X014378Y007478D01*
X014314Y007414D01*
X014184Y007414D01*
X014458Y007140D01*
X017858Y007140D01*
X017940Y007058D01*
X017940Y006992D01*
X017988Y007040D01*
X018120Y007040D01*
X018120Y006680D01*
X018180Y006680D01*
X018180Y007040D01*
X018312Y007040D01*
X018540Y006812D01*
X018540Y006680D01*
X018180Y006680D01*
X018180Y006620D01*
X018540Y006620D01*
X018540Y006488D01*
X018312Y006260D01*
X018238Y006260D01*
X018708Y005790D01*
X020300Y005790D01*
X020300Y005795D01*
X020505Y006000D01*
X020795Y006000D01*
X021000Y005795D01*
X021000Y005505D01*
X020795Y005300D01*
X020505Y005300D01*
X020300Y005505D01*
X020300Y005510D01*
X018592Y005510D01*
X018510Y005592D01*
X017660Y006442D01*
X017660Y006860D01*
X017435Y006860D01*
X017500Y006795D01*
X017500Y006505D01*
X017295Y006300D01*
X017005Y006300D01*
X017002Y006304D01*
X016840Y006142D01*
X016840Y004719D01*
X021148Y004719D01*
X021213Y004654D01*
X021213Y003303D01*
X021148Y003239D01*
X021095Y003239D01*
X021095Y002051D01*
X021148Y002051D01*
X021213Y001987D01*
X021213Y000636D01*
X021148Y000571D01*
X015152Y000571D01*
X015087Y000636D01*
X015087Y001987D01*
X015152Y002051D01*
X015205Y002051D01*
X015205Y002997D01*
X014960Y003242D01*
X014960Y006226D01*
X011857Y008360D01*
X011842Y008360D01*
X011810Y008392D01*
X011773Y008417D01*
X011770Y008432D01*
X011760Y008442D01*
X011760Y008487D01*
X011752Y008532D01*
X011760Y008543D01*
X011760Y010650D01*
X010740Y010650D01*
X010740Y007092D01*
X010688Y007040D01*
X010812Y007040D01*
X011040Y006812D01*
X011040Y006680D01*
X010680Y006680D01*
X010680Y006620D01*
X011040Y006620D01*
X011040Y006488D01*
X010812Y006260D01*
X010680Y006260D01*
X010680Y006620D01*
X010620Y006620D01*
X010620Y006260D01*
X010488Y006260D01*
X010260Y006488D01*
X010260Y006612D01*
X008367Y004719D01*
X012460Y004719D01*
X012460Y005642D01*
X011798Y006304D01*
X011795Y006300D01*
X011505Y006300D01*
X011300Y006505D01*
X011300Y006795D01*
X011505Y007000D01*
X011795Y007000D01*
X012000Y006795D01*
X012000Y006505D01*
X011996Y006502D01*
X012658Y005840D01*
X012740Y005758D01*
X012740Y004719D01*
X014148Y004719D01*
X014213Y004654D01*
X014213Y003303D01*
X014148Y003239D01*
X014095Y003239D01*
X014095Y002051D01*
X014148Y002051D01*
X014213Y001987D01*
X014213Y000636D01*
X014148Y000571D01*
X008152Y000571D01*
X008087Y000636D01*
X008087Y001987D01*
X008152Y002051D01*
X008205Y002051D01*
X008205Y002997D01*
X007960Y003242D01*
X007960Y004708D01*
X008042Y004790D01*
X010460Y007208D01*
X010460Y010650D01*
X008348Y010650D01*
X002417Y004719D01*
X007148Y004719D01*
X007213Y004654D01*
X007213Y003303D01*
X007148Y003239D01*
X007095Y003239D01*
X007095Y002051D01*
X007148Y002051D01*
X007213Y001987D01*
X007213Y000636D01*
X007148Y000571D01*
X001152Y000571D01*
X001087Y000636D01*
X001087Y001915D01*
X000810Y002192D01*
X000810Y005008D01*
X000892Y005090D01*
X000892Y005090D01*
X002304Y006502D01*
X002300Y006505D01*
X002300Y006795D01*
X002505Y007000D01*
X002795Y007000D01*
X003000Y006795D01*
X003000Y006505D01*
X002795Y006300D01*
X002505Y006300D01*
X002502Y006304D01*
X001090Y004892D01*
X001090Y004840D01*
X002142Y004840D01*
X003562Y006260D01*
X003488Y006260D01*
X003260Y006488D01*
X003260Y006620D01*
X003620Y006620D01*
X003620Y006680D01*
X003620Y007040D01*
X003488Y007040D01*
X003260Y006812D01*
X003260Y006680D01*
X003620Y006680D01*
X003680Y006680D01*
X003680Y007040D01*
X003812Y007040D01*
X004040Y006812D01*
X004040Y006738D01*
X007952Y010650D01*
X000350Y010650D01*
X000350Y010592D02*
X007894Y010592D01*
X007796Y010494D02*
X000350Y010494D01*
X000350Y010395D02*
X007697Y010395D01*
X007599Y010297D02*
X000350Y010297D01*
X000350Y010198D02*
X007500Y010198D01*
X007402Y010100D02*
X000350Y010100D01*
X000350Y010001D02*
X007303Y010001D01*
X007205Y009903D02*
X000350Y009903D01*
X000350Y009804D02*
X007106Y009804D01*
X007008Y009706D02*
X000350Y009706D01*
X000350Y009607D02*
X006909Y009607D01*
X006811Y009509D02*
X000350Y009509D01*
X000350Y009410D02*
X006712Y009410D01*
X006614Y009312D02*
X000350Y009312D01*
X000350Y009213D02*
X006515Y009213D01*
X006417Y009115D02*
X000350Y009115D01*
X000350Y009016D02*
X006318Y009016D01*
X006220Y008918D02*
X000350Y008918D01*
X000350Y008819D02*
X006121Y008819D01*
X006023Y008721D02*
X000350Y008721D01*
X000350Y008622D02*
X005924Y008622D01*
X005826Y008524D02*
X000350Y008524D01*
X000350Y008425D02*
X005727Y008425D01*
X005629Y008327D02*
X000350Y008327D01*
X000350Y008228D02*
X005530Y008228D01*
X005432Y008130D02*
X000350Y008130D01*
X000350Y008031D02*
X005333Y008031D01*
X005235Y007933D02*
X000350Y007933D01*
X000350Y007834D02*
X005136Y007834D01*
X005038Y007736D02*
X000350Y007736D01*
X000350Y007637D02*
X004939Y007637D01*
X004841Y007539D02*
X000350Y007539D01*
X000350Y007440D02*
X004742Y007440D01*
X004644Y007342D02*
X000350Y007342D01*
X000350Y007243D02*
X004545Y007243D01*
X004447Y007145D02*
X000350Y007145D01*
X000350Y007046D02*
X004348Y007046D01*
X004250Y006948D02*
X003904Y006948D01*
X004003Y006849D02*
X004151Y006849D01*
X004053Y006751D02*
X004040Y006751D01*
X004252Y006554D02*
X009806Y006554D01*
X009904Y006652D02*
X004350Y006652D01*
X004449Y006751D02*
X010003Y006751D01*
X010101Y006849D02*
X004547Y006849D01*
X004646Y006948D02*
X010200Y006948D01*
X010298Y007046D02*
X004744Y007046D01*
X004843Y007145D02*
X010397Y007145D01*
X010460Y007243D02*
X004941Y007243D01*
X005040Y007342D02*
X010460Y007342D01*
X010460Y007440D02*
X005138Y007440D01*
X005237Y007539D02*
X010460Y007539D01*
X010460Y007637D02*
X005335Y007637D01*
X005434Y007736D02*
X010460Y007736D01*
X010460Y007834D02*
X005532Y007834D01*
X005631Y007933D02*
X010460Y007933D01*
X010460Y008031D02*
X005729Y008031D01*
X005828Y008130D02*
X010460Y008130D01*
X010460Y008228D02*
X005926Y008228D01*
X006025Y008327D02*
X010460Y008327D01*
X010460Y008425D02*
X006123Y008425D01*
X006222Y008524D02*
X010460Y008524D01*
X010460Y008622D02*
X006320Y008622D01*
X006419Y008721D02*
X010460Y008721D01*
X010460Y008819D02*
X006517Y008819D01*
X006616Y008918D02*
X010460Y008918D01*
X010460Y009016D02*
X006714Y009016D01*
X006813Y009115D02*
X010460Y009115D01*
X010460Y009213D02*
X006911Y009213D01*
X007010Y009312D02*
X010460Y009312D01*
X010460Y009410D02*
X007108Y009410D01*
X007207Y009509D02*
X010460Y009509D01*
X010460Y009607D02*
X007305Y009607D01*
X007404Y009706D02*
X010460Y009706D01*
X010460Y009804D02*
X007502Y009804D01*
X007601Y009903D02*
X010460Y009903D01*
X010460Y010001D02*
X007699Y010001D01*
X007798Y010100D02*
X010460Y010100D01*
X010460Y010198D02*
X007896Y010198D01*
X007995Y010297D02*
X010460Y010297D01*
X010460Y010395D02*
X008093Y010395D01*
X008192Y010494D02*
X010460Y010494D01*
X010460Y010592D02*
X008290Y010592D01*
X007952Y011150D02*
X000350Y011150D01*
X000350Y022946D01*
X024320Y022946D01*
X024320Y011150D01*
X019877Y011150D01*
X016190Y015303D01*
X016190Y017808D01*
X016039Y017959D01*
X016060Y017980D01*
X016060Y018320D01*
X015820Y018560D01*
X015790Y018560D01*
X015790Y018758D01*
X015708Y018840D01*
X012442Y018840D01*
X012360Y018758D01*
X010510Y016908D01*
X010510Y016208D01*
X010160Y015858D01*
X010160Y013358D01*
X007952Y011150D01*
X007985Y011183D02*
X000350Y011183D01*
X000350Y011282D02*
X008084Y011282D01*
X008182Y011380D02*
X000350Y011380D01*
X000350Y011479D02*
X008281Y011479D01*
X008379Y011577D02*
X000350Y011577D01*
X000350Y011676D02*
X008478Y011676D01*
X008576Y011774D02*
X000350Y011774D01*
X000350Y011873D02*
X008675Y011873D01*
X008773Y011971D02*
X000350Y011971D01*
X000350Y012070D02*
X008872Y012070D01*
X008970Y012168D02*
X000350Y012168D01*
X000350Y012267D02*
X009069Y012267D01*
X009167Y012365D02*
X000350Y012365D01*
X000350Y012464D02*
X009266Y012464D01*
X009364Y012562D02*
X000350Y012562D01*
X000350Y012661D02*
X009463Y012661D01*
X009561Y012759D02*
X000350Y012759D01*
X000350Y012858D02*
X009660Y012858D01*
X009758Y012956D02*
X000350Y012956D01*
X000350Y013055D02*
X009857Y013055D01*
X009955Y013153D02*
X000350Y013153D01*
X000350Y013252D02*
X010054Y013252D01*
X010152Y013350D02*
X000350Y013350D01*
X000350Y013449D02*
X010160Y013449D01*
X010160Y013547D02*
X000350Y013547D01*
X000350Y013646D02*
X010160Y013646D01*
X010160Y013744D02*
X000350Y013744D01*
X000350Y013843D02*
X010160Y013843D01*
X010160Y013941D02*
X000350Y013941D01*
X000350Y014040D02*
X010160Y014040D01*
X010160Y014138D02*
X000350Y014138D01*
X000350Y014237D02*
X010160Y014237D01*
X010160Y014335D02*
X008044Y014335D01*
X008088Y014353D02*
X008187Y014452D01*
X008240Y014580D01*
X008240Y014720D01*
X008187Y014848D01*
X008088Y014947D01*
X007960Y015000D01*
X007340Y015000D01*
X007212Y014947D01*
X007113Y014848D01*
X007060Y014720D01*
X007060Y014580D01*
X007113Y014452D01*
X007212Y014353D01*
X007340Y014300D01*
X007960Y014300D01*
X008088Y014353D01*
X008169Y014434D02*
X010160Y014434D01*
X010160Y014532D02*
X008220Y014532D01*
X008240Y014631D02*
X010160Y014631D01*
X010160Y014729D02*
X008236Y014729D01*
X008195Y014828D02*
X010160Y014828D01*
X010160Y014926D02*
X008109Y014926D01*
X007191Y014926D02*
X000350Y014926D01*
X000350Y014828D02*
X007105Y014828D01*
X007064Y014729D02*
X000350Y014729D01*
X000350Y014631D02*
X007060Y014631D01*
X007080Y014532D02*
X000350Y014532D01*
X000350Y014434D02*
X007131Y014434D01*
X007256Y014335D02*
X000350Y014335D01*
X000350Y015025D02*
X010160Y015025D01*
X010160Y015123D02*
X000350Y015123D01*
X000350Y015222D02*
X010160Y015222D01*
X010160Y015320D02*
X000350Y015320D01*
X000350Y015419D02*
X010160Y015419D01*
X010160Y015517D02*
X000350Y015517D01*
X000350Y015616D02*
X010160Y015616D01*
X010160Y015714D02*
X000350Y015714D01*
X000350Y015813D02*
X010160Y015813D01*
X010213Y015911D02*
X000350Y015911D01*
X000350Y016010D02*
X010312Y016010D01*
X010410Y016108D02*
X000350Y016108D01*
X000350Y016207D02*
X010509Y016207D01*
X010510Y016305D02*
X007972Y016305D01*
X007960Y016300D02*
X008088Y016353D01*
X008187Y016452D01*
X008240Y016580D01*
X008240Y016720D01*
X008187Y016848D01*
X008088Y016947D01*
X007960Y017000D01*
X007340Y017000D01*
X007212Y016947D01*
X007113Y016848D01*
X007060Y016720D01*
X007060Y016580D01*
X007113Y016452D01*
X007212Y016353D01*
X007340Y016300D01*
X007960Y016300D01*
X008139Y016404D02*
X010510Y016404D01*
X010510Y016502D02*
X008208Y016502D01*
X008240Y016601D02*
X010510Y016601D01*
X010510Y016699D02*
X008240Y016699D01*
X008208Y016798D02*
X010510Y016798D01*
X010510Y016896D02*
X008139Y016896D01*
X007973Y016995D02*
X010597Y016995D01*
X010695Y017093D02*
X000350Y017093D01*
X000350Y016995D02*
X007327Y016995D01*
X007161Y016896D02*
X000350Y016896D01*
X000350Y016798D02*
X007092Y016798D01*
X007060Y016699D02*
X000350Y016699D01*
X000350Y016601D02*
X007060Y016601D01*
X007092Y016502D02*
X000350Y016502D01*
X000350Y016404D02*
X007161Y016404D01*
X007328Y016305D02*
X000350Y016305D01*
X000350Y017192D02*
X010794Y017192D01*
X010892Y017290D02*
X000350Y017290D01*
X000350Y017389D02*
X010991Y017389D01*
X011089Y017487D02*
X000350Y017487D01*
X000350Y017586D02*
X011188Y017586D01*
X011286Y017684D02*
X000350Y017684D01*
X000350Y017783D02*
X011385Y017783D01*
X011483Y017881D02*
X000350Y017881D01*
X000350Y017980D02*
X011582Y017980D01*
X011680Y018078D02*
X000350Y018078D01*
X000350Y018177D02*
X011779Y018177D01*
X011877Y018275D02*
X000350Y018275D01*
X000350Y018374D02*
X011976Y018374D01*
X012074Y018472D02*
X000350Y018472D01*
X000350Y018571D02*
X012173Y018571D01*
X012271Y018669D02*
X000350Y018669D01*
X000350Y018768D02*
X012370Y018768D01*
X012608Y018410D02*
X013274Y018410D01*
X013200Y018336D01*
X013200Y018200D01*
X013600Y018200D01*
X013600Y018100D01*
X013200Y018100D01*
X013200Y017964D01*
X013433Y017731D01*
X013110Y017408D01*
X013110Y016892D01*
X013192Y016810D01*
X014263Y015739D01*
X014248Y015735D01*
X014226Y015722D01*
X013740Y016208D01*
X013658Y016290D01*
X011488Y016290D01*
X011640Y016442D01*
X011640Y016510D01*
X011800Y016510D01*
X011800Y016505D01*
X012005Y016300D01*
X012295Y016300D01*
X012500Y016505D01*
X012500Y016795D01*
X012295Y017000D01*
X012005Y017000D01*
X011800Y016795D01*
X011800Y016790D01*
X011540Y016790D01*
X011540Y016812D01*
X011312Y017040D01*
X011238Y017040D01*
X012608Y018410D01*
X012572Y018374D02*
X013237Y018374D01*
X013200Y018275D02*
X012473Y018275D01*
X012375Y018177D02*
X013600Y018177D01*
X013700Y018177D02*
X014110Y018177D01*
X014100Y018200D02*
X014100Y018336D01*
X014026Y018410D01*
X014112Y018410D01*
X014110Y018408D01*
X014110Y018292D01*
X014110Y017890D01*
X014026Y017890D01*
X014100Y017964D01*
X014100Y018100D01*
X013700Y018100D01*
X013700Y018200D01*
X014100Y018200D01*
X014100Y018275D02*
X014110Y018275D01*
X014110Y018374D02*
X014063Y018374D01*
X014100Y018078D02*
X014110Y018078D01*
X014100Y017980D02*
X014110Y017980D01*
X013381Y017783D02*
X011981Y017783D01*
X012079Y017881D02*
X013283Y017881D01*
X013200Y017980D02*
X012178Y017980D01*
X012276Y018078D02*
X013200Y018078D01*
X013386Y017684D02*
X011882Y017684D01*
X011784Y017586D02*
X013288Y017586D01*
X013189Y017487D02*
X011685Y017487D01*
X011587Y017389D02*
X013110Y017389D01*
X013110Y017290D02*
X011488Y017290D01*
X011390Y017192D02*
X013110Y017192D01*
X013110Y017093D02*
X011291Y017093D01*
X011357Y016995D02*
X012000Y016995D01*
X011901Y016896D02*
X011455Y016896D01*
X011540Y016798D02*
X011803Y016798D01*
X012300Y016995D02*
X013110Y016995D01*
X013110Y016896D02*
X012399Y016896D01*
X012497Y016798D02*
X013204Y016798D01*
X013303Y016699D02*
X012500Y016699D01*
X012500Y016601D02*
X013401Y016601D01*
X013500Y016502D02*
X012497Y016502D01*
X012399Y016404D02*
X013598Y016404D01*
X013697Y016305D02*
X012300Y016305D01*
X012000Y016305D02*
X011503Y016305D01*
X011602Y016404D02*
X011901Y016404D01*
X011803Y016502D02*
X011640Y016502D01*
X013741Y016207D02*
X013795Y016207D01*
X013840Y016108D02*
X013894Y016108D01*
X013938Y016010D02*
X013992Y016010D01*
X014037Y015911D02*
X014091Y015911D01*
X014135Y015813D02*
X014189Y015813D01*
X012841Y014150D02*
X012150Y014150D01*
X012150Y012150D01*
X012650Y012150D01*
X014150Y012150D02*
X014650Y011650D01*
X014650Y011343D01*
X013500Y010592D02*
X015800Y010592D01*
X015800Y010494D02*
X013500Y010494D01*
X013436Y010378D02*
X012478Y010378D01*
X012414Y010314D01*
X012414Y009986D01*
X012478Y009922D01*
X013436Y009922D01*
X013500Y009986D01*
X013500Y010314D01*
X013436Y010378D01*
X013500Y010297D02*
X015800Y010297D01*
X015800Y010314D02*
X015800Y009986D01*
X015864Y009922D01*
X016822Y009922D01*
X016886Y009986D01*
X016886Y010314D01*
X016822Y010378D01*
X015864Y010378D01*
X015800Y010314D01*
X015800Y010198D02*
X013500Y010198D01*
X013500Y010100D02*
X015800Y010100D01*
X015800Y010001D02*
X013500Y010001D01*
X013436Y009878D02*
X012478Y009878D01*
X012414Y009814D01*
X012414Y009486D01*
X012478Y009422D01*
X013436Y009422D01*
X013500Y009486D01*
X013500Y009814D01*
X013436Y009878D01*
X013500Y009804D02*
X015800Y009804D01*
X015800Y009814D02*
X015800Y009486D01*
X015864Y009422D01*
X016822Y009422D01*
X016886Y009486D01*
X016886Y009814D01*
X016822Y009878D01*
X015864Y009878D01*
X015800Y009814D01*
X015800Y009706D02*
X013500Y009706D01*
X013500Y009607D02*
X015800Y009607D01*
X015800Y009509D02*
X013500Y009509D01*
X013436Y009378D02*
X012478Y009378D01*
X012414Y009314D01*
X012414Y008986D01*
X012478Y008922D01*
X013436Y008922D01*
X013500Y008986D01*
X013500Y009314D01*
X013436Y009378D01*
X013500Y009312D02*
X015800Y009312D01*
X015800Y009314D02*
X015800Y008986D01*
X015864Y008922D01*
X016822Y008922D01*
X016886Y008986D01*
X016886Y009314D01*
X016822Y009378D01*
X015864Y009378D01*
X015800Y009314D01*
X015800Y009213D02*
X013500Y009213D01*
X013500Y009115D02*
X015800Y009115D01*
X015800Y009016D02*
X013500Y009016D01*
X013495Y008819D02*
X015805Y008819D01*
X015800Y008814D02*
X015800Y008500D01*
X015486Y008500D01*
X015422Y008436D01*
X015422Y007478D01*
X015486Y007414D01*
X015814Y007414D01*
X015878Y007478D01*
X015878Y008422D01*
X016822Y008422D01*
X016886Y008486D01*
X016886Y008814D01*
X016822Y008878D01*
X015864Y008878D01*
X015800Y008814D01*
X015800Y008721D02*
X013500Y008721D01*
X013500Y008622D02*
X015800Y008622D01*
X015800Y008524D02*
X013500Y008524D01*
X013422Y008327D02*
X012399Y008327D01*
X012475Y008425D02*
X012256Y008425D01*
X012113Y008524D02*
X012414Y008524D01*
X012414Y008622D02*
X012040Y008622D01*
X012040Y008721D02*
X012414Y008721D01*
X012419Y008819D02*
X012040Y008819D01*
X012040Y008918D02*
X020423Y008918D01*
X020510Y009016D02*
X016886Y009016D01*
X016886Y009115D02*
X020510Y009115D01*
X020510Y009213D02*
X016886Y009213D01*
X016886Y009312D02*
X020510Y009312D01*
X020510Y009410D02*
X012040Y009410D01*
X012040Y009312D02*
X012414Y009312D01*
X012414Y009213D02*
X012040Y009213D01*
X012040Y009115D02*
X012414Y009115D01*
X012414Y009016D02*
X012040Y009016D01*
X011760Y009016D02*
X010740Y009016D01*
X010740Y008918D02*
X011760Y008918D01*
X011760Y008819D02*
X010740Y008819D01*
X010740Y008721D02*
X011760Y008721D01*
X011760Y008622D02*
X010740Y008622D01*
X010740Y008524D02*
X011753Y008524D01*
X011772Y008425D02*
X010740Y008425D01*
X010740Y008327D02*
X011905Y008327D01*
X012048Y008228D02*
X010740Y008228D01*
X010740Y008130D02*
X012192Y008130D01*
X012335Y008031D02*
X010740Y008031D01*
X010740Y007933D02*
X012478Y007933D01*
X012622Y007834D02*
X010740Y007834D01*
X010740Y007736D02*
X012765Y007736D01*
X012908Y007637D02*
X010740Y007637D01*
X010740Y007539D02*
X013051Y007539D01*
X013195Y007440D02*
X010740Y007440D01*
X010740Y007342D02*
X013338Y007342D01*
X013481Y007243D02*
X010740Y007243D01*
X010740Y007145D02*
X013624Y007145D01*
X013768Y007046D02*
X010694Y007046D01*
X010904Y006948D02*
X011453Y006948D01*
X011354Y006849D02*
X011003Y006849D01*
X011040Y006751D02*
X011300Y006751D01*
X011300Y006652D02*
X010680Y006652D01*
X010680Y006554D02*
X010620Y006554D01*
X010620Y006455D02*
X010680Y006455D01*
X010680Y006357D02*
X010620Y006357D01*
X010392Y006357D02*
X010005Y006357D01*
X010103Y006455D02*
X010293Y006455D01*
X010260Y006554D02*
X010202Y006554D01*
X009906Y006258D02*
X011844Y006258D01*
X011942Y006160D02*
X009808Y006160D01*
X009709Y006061D02*
X012041Y006061D01*
X012139Y005963D02*
X009611Y005963D01*
X009512Y005864D02*
X012238Y005864D01*
X012336Y005766D02*
X009414Y005766D01*
X009315Y005667D02*
X012435Y005667D01*
X012460Y005569D02*
X009217Y005569D01*
X009118Y005470D02*
X012460Y005470D01*
X012460Y005372D02*
X009020Y005372D01*
X008921Y005273D02*
X012460Y005273D01*
X012460Y005175D02*
X008823Y005175D01*
X008724Y005076D02*
X012460Y005076D01*
X012460Y004978D02*
X008626Y004978D01*
X008527Y004879D02*
X012460Y004879D01*
X012460Y004781D02*
X008429Y004781D01*
X008230Y004978D02*
X002676Y004978D01*
X002774Y005076D02*
X008328Y005076D01*
X008427Y005175D02*
X002873Y005175D01*
X002971Y005273D02*
X008525Y005273D01*
X008624Y005372D02*
X003070Y005372D01*
X003168Y005470D02*
X008722Y005470D01*
X008821Y005569D02*
X003267Y005569D01*
X003365Y005667D02*
X008919Y005667D01*
X009018Y005766D02*
X003464Y005766D01*
X003562Y005864D02*
X009116Y005864D01*
X009215Y005963D02*
X003661Y005963D01*
X003759Y006061D02*
X009313Y006061D01*
X009412Y006160D02*
X003858Y006160D01*
X003956Y006258D02*
X009510Y006258D01*
X009609Y006357D02*
X004055Y006357D01*
X004153Y006455D02*
X009707Y006455D01*
X010908Y006357D02*
X011448Y006357D01*
X011350Y006455D02*
X011007Y006455D01*
X011040Y006554D02*
X011300Y006554D01*
X011847Y006948D02*
X013911Y006948D01*
X014054Y006849D02*
X011946Y006849D01*
X012000Y006751D02*
X014198Y006751D01*
X014341Y006652D02*
X012000Y006652D01*
X012000Y006554D02*
X014484Y006554D01*
X014627Y006455D02*
X012043Y006455D01*
X012141Y006357D02*
X014771Y006357D01*
X014914Y006258D02*
X012240Y006258D01*
X012338Y006160D02*
X014960Y006160D01*
X014960Y006061D02*
X012437Y006061D01*
X012535Y005963D02*
X014960Y005963D01*
X014960Y005864D02*
X012634Y005864D01*
X012732Y005766D02*
X014960Y005766D01*
X014960Y005667D02*
X012740Y005667D01*
X012740Y005569D02*
X014960Y005569D01*
X014960Y005470D02*
X012740Y005470D01*
X012740Y005372D02*
X014960Y005372D01*
X014960Y005273D02*
X012740Y005273D01*
X012740Y005175D02*
X014960Y005175D01*
X014960Y005076D02*
X012740Y005076D01*
X012740Y004978D02*
X014960Y004978D01*
X014960Y004879D02*
X012740Y004879D01*
X012740Y004781D02*
X014960Y004781D01*
X014960Y004682D02*
X014185Y004682D01*
X014213Y004584D02*
X014960Y004584D01*
X014960Y004485D02*
X014213Y004485D01*
X014213Y004387D02*
X014960Y004387D01*
X014960Y004288D02*
X014213Y004288D01*
X014213Y004190D02*
X014960Y004190D01*
X014960Y004091D02*
X014213Y004091D01*
X014213Y003993D02*
X014960Y003993D01*
X014960Y003894D02*
X014213Y003894D01*
X014213Y003796D02*
X014960Y003796D01*
X014960Y003697D02*
X014213Y003697D01*
X014213Y003599D02*
X014960Y003599D01*
X014960Y003500D02*
X014213Y003500D01*
X014213Y003402D02*
X014960Y003402D01*
X014960Y003303D02*
X014213Y003303D01*
X014095Y003205D02*
X014997Y003205D01*
X015096Y003106D02*
X014095Y003106D01*
X014095Y003008D02*
X015194Y003008D01*
X015205Y002909D02*
X014095Y002909D01*
X014095Y002811D02*
X015205Y002811D01*
X015205Y002712D02*
X014095Y002712D01*
X014095Y002614D02*
X015205Y002614D01*
X015205Y002515D02*
X014095Y002515D01*
X014095Y002417D02*
X015205Y002417D01*
X015205Y002318D02*
X014095Y002318D01*
X014095Y002220D02*
X015205Y002220D01*
X015205Y002121D02*
X014095Y002121D01*
X014177Y002023D02*
X015123Y002023D01*
X015087Y001924D02*
X014213Y001924D01*
X014213Y001826D02*
X015087Y001826D01*
X015087Y001727D02*
X014213Y001727D01*
X014213Y001629D02*
X015087Y001629D01*
X015087Y001530D02*
X014213Y001530D01*
X014213Y001432D02*
X015087Y001432D01*
X015087Y001333D02*
X014213Y001333D01*
X014213Y001235D02*
X015087Y001235D01*
X015087Y001136D02*
X014213Y001136D01*
X014213Y001038D02*
X015087Y001038D01*
X015087Y000939D02*
X014213Y000939D01*
X014213Y000841D02*
X015087Y000841D01*
X015087Y000742D02*
X014213Y000742D01*
X014213Y000644D02*
X015087Y000644D01*
X016840Y004781D02*
X024320Y004781D01*
X024320Y004879D02*
X016840Y004879D01*
X016840Y004978D02*
X024320Y004978D01*
X024320Y005076D02*
X016840Y005076D01*
X016840Y005175D02*
X024320Y005175D01*
X024320Y005273D02*
X016840Y005273D01*
X016840Y005372D02*
X020433Y005372D01*
X020335Y005470D02*
X016840Y005470D01*
X016840Y005569D02*
X018533Y005569D01*
X018435Y005667D02*
X016840Y005667D01*
X016840Y005766D02*
X018336Y005766D01*
X018238Y005864D02*
X016840Y005864D01*
X016840Y005963D02*
X018139Y005963D01*
X018041Y006061D02*
X016840Y006061D01*
X016858Y006160D02*
X017942Y006160D01*
X017844Y006258D02*
X016956Y006258D01*
X017352Y006357D02*
X017745Y006357D01*
X017660Y006455D02*
X017450Y006455D01*
X017500Y006554D02*
X017660Y006554D01*
X017660Y006652D02*
X017500Y006652D01*
X017500Y006751D02*
X017660Y006751D01*
X017660Y006849D02*
X017446Y006849D01*
X017940Y007046D02*
X021160Y007046D01*
X021160Y006948D02*
X020847Y006948D01*
X020795Y007000D02*
X021000Y006795D01*
X021000Y006505D01*
X020795Y006300D01*
X020505Y006300D01*
X020300Y006505D01*
X020300Y006795D01*
X020505Y007000D01*
X020795Y007000D01*
X020946Y006849D02*
X021160Y006849D01*
X021160Y006751D02*
X021000Y006751D01*
X021000Y006652D02*
X021160Y006652D01*
X021160Y006554D02*
X021000Y006554D01*
X020950Y006455D02*
X021160Y006455D01*
X021160Y006357D02*
X020852Y006357D01*
X021160Y006258D02*
X018240Y006258D01*
X018338Y006160D02*
X021160Y006160D01*
X021160Y006061D02*
X018437Y006061D01*
X018535Y005963D02*
X020468Y005963D01*
X020369Y005864D02*
X018634Y005864D01*
X018408Y006357D02*
X020448Y006357D01*
X020350Y006455D02*
X018507Y006455D01*
X018540Y006554D02*
X020300Y006554D01*
X020300Y006652D02*
X018180Y006652D01*
X018180Y006751D02*
X018120Y006751D01*
X018120Y006849D02*
X018180Y006849D01*
X018180Y006948D02*
X018120Y006948D01*
X018404Y006948D02*
X020453Y006948D01*
X020354Y006849D02*
X018503Y006849D01*
X018540Y006751D02*
X020300Y006751D01*
X021160Y007145D02*
X014453Y007145D01*
X014355Y007243D02*
X021160Y007243D01*
X021160Y007342D02*
X014256Y007342D01*
X014340Y007440D02*
X014460Y007440D01*
X014486Y007414D02*
X014422Y007478D01*
X014422Y008436D01*
X014486Y008500D01*
X014814Y008500D01*
X014878Y008436D01*
X014878Y007478D01*
X014814Y007414D01*
X014486Y007414D01*
X014422Y007539D02*
X014378Y007539D01*
X014378Y007637D02*
X014422Y007637D01*
X014422Y007736D02*
X014378Y007736D01*
X014378Y007834D02*
X014422Y007834D01*
X014422Y007933D02*
X014378Y007933D01*
X014378Y008031D02*
X014422Y008031D01*
X014422Y008130D02*
X014378Y008130D01*
X014378Y008228D02*
X014422Y008228D01*
X014422Y008327D02*
X014378Y008327D01*
X014378Y008425D02*
X014422Y008425D01*
X014878Y008425D02*
X014922Y008425D01*
X014922Y008436D02*
X014922Y007478D01*
X014986Y007414D01*
X015314Y007414D01*
X015378Y007478D01*
X015378Y008436D01*
X015314Y008500D01*
X014986Y008500D01*
X014922Y008436D01*
X014922Y008327D02*
X014878Y008327D01*
X014878Y008228D02*
X014922Y008228D01*
X014922Y008130D02*
X014878Y008130D01*
X014878Y008031D02*
X014922Y008031D01*
X014922Y007933D02*
X014878Y007933D01*
X014878Y007834D02*
X014922Y007834D01*
X014922Y007736D02*
X014878Y007736D01*
X014878Y007637D02*
X014922Y007637D01*
X014922Y007539D02*
X014878Y007539D01*
X014840Y007440D02*
X014960Y007440D01*
X015340Y007440D02*
X015460Y007440D01*
X015422Y007539D02*
X015378Y007539D01*
X015378Y007637D02*
X015422Y007637D01*
X015422Y007736D02*
X015378Y007736D01*
X015378Y007834D02*
X015422Y007834D01*
X015422Y007933D02*
X015378Y007933D01*
X015378Y008031D02*
X015422Y008031D01*
X015422Y008130D02*
X015378Y008130D01*
X015378Y008228D02*
X015422Y008228D01*
X015422Y008327D02*
X015378Y008327D01*
X015378Y008425D02*
X015422Y008425D01*
X015878Y008327D02*
X020478Y008327D01*
X020380Y008425D02*
X016825Y008425D01*
X016886Y008524D02*
X020300Y008524D01*
X020300Y008622D02*
X016886Y008622D01*
X016886Y008721D02*
X020300Y008721D01*
X020324Y008819D02*
X016881Y008819D01*
X016886Y009509D02*
X020510Y009509D01*
X020510Y009607D02*
X016886Y009607D01*
X016886Y009706D02*
X020510Y009706D01*
X020510Y009804D02*
X016886Y009804D01*
X016886Y010001D02*
X020510Y010001D01*
X020510Y009903D02*
X012040Y009903D01*
X012040Y010001D02*
X012414Y010001D01*
X012414Y010100D02*
X012040Y010100D01*
X012040Y010198D02*
X012414Y010198D01*
X012414Y010297D02*
X012040Y010297D01*
X012040Y010395D02*
X019410Y010395D01*
X019311Y010494D02*
X016886Y010494D01*
X016886Y010592D02*
X019300Y010592D01*
X019890Y010395D02*
X020410Y010395D01*
X020311Y010494D02*
X019989Y010494D01*
X020000Y010592D02*
X020300Y010592D01*
X020510Y010297D02*
X016886Y010297D01*
X016886Y010198D02*
X020510Y010198D01*
X020510Y010100D02*
X016886Y010100D01*
X015878Y008228D02*
X021160Y008228D01*
X021160Y008130D02*
X015878Y008130D01*
X015878Y008031D02*
X021160Y008031D01*
X021160Y007933D02*
X015878Y007933D01*
X015878Y007834D02*
X021160Y007834D01*
X021160Y007736D02*
X015878Y007736D01*
X015878Y007637D02*
X021160Y007637D01*
X021160Y007539D02*
X015878Y007539D01*
X015840Y007440D02*
X021160Y007440D01*
X022140Y007440D02*
X024320Y007440D01*
X024320Y007342D02*
X022140Y007342D01*
X022140Y007243D02*
X024320Y007243D01*
X024320Y007145D02*
X022140Y007145D01*
X022140Y007046D02*
X024320Y007046D01*
X024320Y006948D02*
X022140Y006948D01*
X022047Y006849D02*
X024320Y006849D01*
X024320Y006751D02*
X022000Y006751D01*
X022000Y006652D02*
X024320Y006652D01*
X024320Y006554D02*
X022000Y006554D01*
X021950Y006455D02*
X024320Y006455D01*
X024320Y006357D02*
X021852Y006357D01*
X021448Y006357D02*
X021440Y006357D01*
X021440Y006258D02*
X024320Y006258D01*
X024320Y006160D02*
X021440Y006160D01*
X021440Y006061D02*
X024320Y006061D01*
X024320Y005963D02*
X021832Y005963D01*
X021931Y005864D02*
X024320Y005864D01*
X024320Y005766D02*
X022000Y005766D01*
X022000Y005667D02*
X024320Y005667D01*
X024320Y005569D02*
X022000Y005569D01*
X021965Y005470D02*
X024320Y005470D01*
X024320Y005372D02*
X021867Y005372D01*
X021433Y005372D02*
X020867Y005372D01*
X020965Y005470D02*
X021335Y005470D01*
X021300Y005569D02*
X021000Y005569D01*
X021000Y005667D02*
X021300Y005667D01*
X021300Y005766D02*
X021000Y005766D01*
X020931Y005864D02*
X021238Y005864D01*
X021160Y005963D02*
X020832Y005963D01*
X021185Y004682D02*
X024320Y004682D01*
X024320Y004584D02*
X021213Y004584D01*
X021213Y004485D02*
X024320Y004485D01*
X024320Y004387D02*
X021213Y004387D01*
X021213Y004288D02*
X024320Y004288D01*
X024320Y004190D02*
X021213Y004190D01*
X021213Y004091D02*
X024320Y004091D01*
X024320Y003993D02*
X022978Y003993D01*
X022960Y004000D02*
X023088Y003947D01*
X023187Y003848D01*
X023240Y003720D01*
X023240Y003580D01*
X023187Y003452D01*
X023088Y003353D01*
X022960Y003300D01*
X022340Y003300D01*
X022212Y003353D01*
X022113Y003452D01*
X022060Y003580D01*
X022060Y003720D01*
X022113Y003848D01*
X022212Y003947D01*
X022340Y004000D01*
X022960Y004000D01*
X023141Y003894D02*
X024320Y003894D01*
X024320Y003796D02*
X023209Y003796D01*
X023240Y003697D02*
X024320Y003697D01*
X024320Y003599D02*
X023240Y003599D01*
X023207Y003500D02*
X024320Y003500D01*
X024320Y003402D02*
X023136Y003402D01*
X022967Y003303D02*
X024320Y003303D01*
X024320Y003205D02*
X021095Y003205D01*
X021095Y003106D02*
X024320Y003106D01*
X024320Y003008D02*
X021095Y003008D01*
X021095Y002909D02*
X024320Y002909D01*
X024320Y002811D02*
X021095Y002811D01*
X021095Y002712D02*
X024320Y002712D01*
X024320Y002614D02*
X021095Y002614D01*
X021095Y002515D02*
X024320Y002515D01*
X024320Y002417D02*
X021095Y002417D01*
X021095Y002318D02*
X024320Y002318D01*
X024320Y002220D02*
X021095Y002220D01*
X021095Y002121D02*
X024320Y002121D01*
X024320Y002023D02*
X021177Y002023D01*
X021213Y001924D02*
X022189Y001924D01*
X022212Y001947D02*
X022113Y001848D01*
X022060Y001720D01*
X022060Y001580D01*
X022113Y001452D01*
X022212Y001353D01*
X022340Y001300D01*
X022960Y001300D01*
X023088Y001353D01*
X023187Y001452D01*
X023240Y001580D01*
X023240Y001720D01*
X023187Y001848D01*
X023088Y001947D01*
X022960Y002000D01*
X022340Y002000D01*
X022212Y001947D01*
X022104Y001826D02*
X021213Y001826D01*
X021213Y001727D02*
X022063Y001727D01*
X022060Y001629D02*
X021213Y001629D01*
X021213Y001530D02*
X022081Y001530D01*
X022134Y001432D02*
X021213Y001432D01*
X021213Y001333D02*
X022261Y001333D01*
X023039Y001333D02*
X024320Y001333D01*
X024320Y001235D02*
X021213Y001235D01*
X021213Y001136D02*
X024320Y001136D01*
X024320Y001038D02*
X021213Y001038D01*
X021213Y000939D02*
X024320Y000939D01*
X024320Y000841D02*
X021213Y000841D01*
X021213Y000742D02*
X024320Y000742D01*
X024320Y000644D02*
X021213Y000644D01*
X023166Y001432D02*
X024320Y001432D01*
X024320Y001530D02*
X023219Y001530D01*
X023240Y001629D02*
X024320Y001629D01*
X024320Y001727D02*
X023237Y001727D01*
X023196Y001826D02*
X024320Y001826D01*
X024320Y001924D02*
X023111Y001924D01*
X022333Y003303D02*
X021213Y003303D01*
X021213Y003402D02*
X022164Y003402D01*
X022093Y003500D02*
X021213Y003500D01*
X021213Y003599D02*
X022060Y003599D01*
X022060Y003697D02*
X021213Y003697D01*
X021213Y003796D02*
X022091Y003796D01*
X022159Y003894D02*
X021213Y003894D01*
X021213Y003993D02*
X022322Y003993D01*
X022140Y007539D02*
X024320Y007539D01*
X024320Y007637D02*
X024147Y007637D01*
X024104Y007637D02*
X022140Y007637D01*
X022140Y007736D02*
X023963Y007736D01*
X023822Y007834D02*
X022140Y007834D01*
X022140Y007933D02*
X023680Y007933D01*
X023539Y008031D02*
X022140Y008031D01*
X022140Y008130D02*
X023398Y008130D01*
X023257Y008228D02*
X022140Y008228D01*
X022140Y008327D02*
X023116Y008327D01*
X022974Y008425D02*
X022140Y008425D01*
X022140Y008524D02*
X022833Y008524D01*
X022692Y008622D02*
X022140Y008622D01*
X022140Y008721D02*
X022551Y008721D01*
X022410Y008819D02*
X022140Y008819D01*
X022140Y008918D02*
X022269Y008918D01*
X022000Y009300D02*
X024150Y007800D01*
X024150Y008150D01*
X024310Y007834D02*
X024320Y007834D01*
X024310Y007736D02*
X024320Y007736D01*
X021860Y009016D02*
X020790Y009016D01*
X020790Y009115D02*
X021860Y009115D01*
X021853Y009213D02*
X020790Y009213D01*
X020790Y009312D02*
X021719Y009312D01*
X021562Y009410D02*
X020790Y009410D01*
X020790Y009509D02*
X021406Y009509D01*
X021250Y009607D02*
X020790Y009607D01*
X020790Y009706D02*
X021093Y009706D01*
X020937Y009804D02*
X020790Y009804D01*
X020877Y008918D02*
X021423Y008918D01*
X021324Y008819D02*
X020976Y008819D01*
X021000Y008721D02*
X021300Y008721D01*
X021300Y008622D02*
X021000Y008622D01*
X021000Y008524D02*
X021300Y008524D01*
X021227Y008425D02*
X020920Y008425D01*
X020822Y008327D02*
X021160Y008327D01*
X019847Y011183D02*
X024320Y011183D01*
X024320Y011282D02*
X019760Y011282D01*
X019672Y011380D02*
X024320Y011380D01*
X024320Y011479D02*
X019585Y011479D01*
X019497Y011577D02*
X024320Y011577D01*
X024320Y011676D02*
X019410Y011676D01*
X019323Y011774D02*
X024320Y011774D01*
X024320Y011873D02*
X023759Y011873D01*
X023709Y011852D02*
X023819Y011897D01*
X023903Y011981D01*
X023948Y012091D01*
X023948Y012209D01*
X023903Y012319D01*
X023819Y012403D01*
X023709Y012448D01*
X023591Y012448D01*
X023481Y012403D01*
X023397Y012319D01*
X023394Y012310D01*
X021906Y012310D01*
X021903Y012319D01*
X021819Y012403D01*
X021709Y012448D01*
X021591Y012448D01*
X021481Y012403D01*
X021397Y012319D01*
X021352Y012209D01*
X021352Y012091D01*
X021397Y011981D01*
X021481Y011897D01*
X021591Y011852D01*
X021709Y011852D01*
X021819Y011897D01*
X021903Y011981D01*
X021906Y011990D01*
X023394Y011990D01*
X023397Y011981D01*
X023481Y011897D01*
X023591Y011852D01*
X023709Y011852D01*
X023541Y011873D02*
X021759Y011873D01*
X021893Y011971D02*
X023407Y011971D01*
X023650Y012150D02*
X021650Y012150D01*
X021376Y012267D02*
X018885Y012267D01*
X018798Y012365D02*
X021443Y012365D01*
X021352Y012168D02*
X018973Y012168D01*
X019060Y012070D02*
X021361Y012070D01*
X021407Y011971D02*
X019148Y011971D01*
X019235Y011873D02*
X021541Y011873D01*
X021857Y012365D02*
X023443Y012365D01*
X023857Y012365D02*
X024320Y012365D01*
X024320Y012267D02*
X023924Y012267D01*
X023948Y012168D02*
X024320Y012168D01*
X024320Y012070D02*
X023939Y012070D01*
X023893Y011971D02*
X024320Y011971D01*
X024320Y012464D02*
X018711Y012464D01*
X018623Y012562D02*
X024320Y012562D01*
X024320Y012661D02*
X018536Y012661D01*
X018448Y012759D02*
X024320Y012759D01*
X024320Y012858D02*
X018361Y012858D01*
X018273Y012956D02*
X024320Y012956D01*
X024320Y013055D02*
X018186Y013055D01*
X018099Y013153D02*
X024320Y013153D01*
X024320Y013252D02*
X018011Y013252D01*
X017924Y013350D02*
X024320Y013350D01*
X024320Y013449D02*
X017836Y013449D01*
X017749Y013547D02*
X024320Y013547D01*
X024320Y013646D02*
X017661Y013646D01*
X017574Y013744D02*
X024320Y013744D01*
X024320Y013843D02*
X017487Y013843D01*
X017399Y013941D02*
X024320Y013941D01*
X024320Y014040D02*
X017312Y014040D01*
X017224Y014138D02*
X024320Y014138D01*
X024320Y014237D02*
X017137Y014237D01*
X017049Y014335D02*
X024320Y014335D01*
X024320Y014434D02*
X016962Y014434D01*
X016874Y014532D02*
X024320Y014532D01*
X024320Y014631D02*
X016787Y014631D01*
X016700Y014729D02*
X024320Y014729D01*
X024320Y014828D02*
X016612Y014828D01*
X016525Y014926D02*
X024320Y014926D01*
X024320Y015025D02*
X016437Y015025D01*
X016350Y015123D02*
X024320Y015123D01*
X024320Y015222D02*
X016262Y015222D01*
X016190Y015320D02*
X024320Y015320D01*
X024320Y015419D02*
X016190Y015419D01*
X016190Y015517D02*
X024320Y015517D01*
X024320Y015616D02*
X016190Y015616D01*
X016190Y015714D02*
X024320Y015714D01*
X024320Y015813D02*
X016190Y015813D01*
X016190Y015911D02*
X024320Y015911D01*
X024320Y016010D02*
X016190Y016010D01*
X016190Y016108D02*
X024320Y016108D01*
X024320Y016207D02*
X016190Y016207D01*
X016190Y016305D02*
X024320Y016305D01*
X024320Y016404D02*
X016190Y016404D01*
X016190Y016502D02*
X024320Y016502D01*
X024320Y016601D02*
X016190Y016601D01*
X016190Y016699D02*
X024320Y016699D01*
X024320Y016798D02*
X016190Y016798D01*
X016190Y016896D02*
X024320Y016896D01*
X024320Y016995D02*
X016190Y016995D01*
X016190Y017093D02*
X024320Y017093D01*
X024320Y017192D02*
X016190Y017192D01*
X016190Y017290D02*
X024320Y017290D01*
X024320Y017389D02*
X016190Y017389D01*
X016190Y017487D02*
X024320Y017487D01*
X024320Y017586D02*
X016190Y017586D01*
X016190Y017684D02*
X024320Y017684D01*
X024320Y017783D02*
X016190Y017783D01*
X016117Y017881D02*
X024320Y017881D01*
X024320Y017980D02*
X016059Y017980D01*
X016060Y018078D02*
X024320Y018078D01*
X024320Y018177D02*
X016060Y018177D01*
X016060Y018275D02*
X024320Y018275D01*
X024320Y018374D02*
X016006Y018374D01*
X015908Y018472D02*
X024320Y018472D01*
X024320Y018571D02*
X015790Y018571D01*
X015790Y018669D02*
X024320Y018669D01*
X024320Y018768D02*
X015780Y018768D01*
X016650Y014150D02*
X015459Y013953D01*
X012414Y010592D02*
X012040Y010592D01*
X012040Y010494D02*
X012414Y010494D01*
X011760Y010494D02*
X010740Y010494D01*
X010740Y010592D02*
X011760Y010592D01*
X011760Y010395D02*
X010740Y010395D01*
X010740Y010297D02*
X011760Y010297D01*
X011760Y010198D02*
X010740Y010198D01*
X010740Y010100D02*
X011760Y010100D01*
X011760Y010001D02*
X010740Y010001D01*
X010740Y009903D02*
X011760Y009903D01*
X011760Y009804D02*
X010740Y009804D01*
X010740Y009706D02*
X011760Y009706D01*
X011760Y009607D02*
X010740Y009607D01*
X010740Y009509D02*
X011760Y009509D01*
X011760Y009410D02*
X010740Y009410D01*
X010740Y009312D02*
X011760Y009312D01*
X011760Y009213D02*
X010740Y009213D01*
X010740Y009115D02*
X011760Y009115D01*
X012040Y009509D02*
X012414Y009509D01*
X012414Y009607D02*
X012040Y009607D01*
X012040Y009706D02*
X012414Y009706D01*
X012414Y009804D02*
X012040Y009804D01*
X012543Y008228D02*
X013422Y008228D01*
X013422Y008130D02*
X012686Y008130D01*
X012829Y008031D02*
X013422Y008031D01*
X013422Y007933D02*
X012973Y007933D01*
X013116Y007834D02*
X013422Y007834D01*
X013422Y007736D02*
X013259Y007736D01*
X013402Y007637D02*
X013422Y007637D01*
X013878Y007933D02*
X013922Y007933D01*
X013922Y008031D02*
X013878Y008031D01*
X013878Y008130D02*
X013922Y008130D01*
X013922Y008228D02*
X013878Y008228D01*
X013878Y008327D02*
X013922Y008327D01*
X013922Y008425D02*
X013878Y008425D01*
X008131Y004879D02*
X002577Y004879D01*
X002479Y004781D02*
X008033Y004781D01*
X007960Y004682D02*
X007185Y004682D01*
X007213Y004584D02*
X007960Y004584D01*
X007960Y004485D02*
X007213Y004485D01*
X007213Y004387D02*
X007960Y004387D01*
X007960Y004288D02*
X007213Y004288D01*
X007213Y004190D02*
X007960Y004190D01*
X007960Y004091D02*
X007213Y004091D01*
X007213Y003993D02*
X007960Y003993D01*
X007960Y003894D02*
X007213Y003894D01*
X007213Y003796D02*
X007960Y003796D01*
X007960Y003697D02*
X007213Y003697D01*
X007213Y003599D02*
X007960Y003599D01*
X007960Y003500D02*
X007213Y003500D01*
X007213Y003402D02*
X007960Y003402D01*
X007960Y003303D02*
X007213Y003303D01*
X007095Y003205D02*
X007997Y003205D01*
X008096Y003106D02*
X007095Y003106D01*
X007095Y003008D02*
X008194Y003008D01*
X008205Y002909D02*
X007095Y002909D01*
X007095Y002811D02*
X008205Y002811D01*
X008205Y002712D02*
X007095Y002712D01*
X007095Y002614D02*
X008205Y002614D01*
X008205Y002515D02*
X007095Y002515D01*
X007095Y002417D02*
X008205Y002417D01*
X008205Y002318D02*
X007095Y002318D01*
X007095Y002220D02*
X008205Y002220D01*
X008205Y002121D02*
X007095Y002121D01*
X007177Y002023D02*
X008123Y002023D01*
X008087Y001924D02*
X007213Y001924D01*
X007213Y001826D02*
X008087Y001826D01*
X008087Y001727D02*
X007213Y001727D01*
X007213Y001629D02*
X008087Y001629D01*
X008087Y001530D02*
X007213Y001530D01*
X007213Y001432D02*
X008087Y001432D01*
X008087Y001333D02*
X007213Y001333D01*
X007213Y001235D02*
X008087Y001235D01*
X008087Y001136D02*
X007213Y001136D01*
X007213Y001038D02*
X008087Y001038D01*
X008087Y000939D02*
X007213Y000939D01*
X007213Y000841D02*
X008087Y000841D01*
X008087Y000742D02*
X007213Y000742D01*
X007213Y000644D02*
X008087Y000644D01*
X002575Y005273D02*
X001471Y005273D01*
X001373Y005175D02*
X002477Y005175D01*
X002378Y005076D02*
X001274Y005076D01*
X001176Y004978D02*
X002280Y004978D01*
X002181Y004879D02*
X001090Y004879D01*
X000810Y004879D02*
X000350Y004879D01*
X000350Y004781D02*
X000810Y004781D01*
X000810Y004682D02*
X000350Y004682D01*
X000350Y004584D02*
X000810Y004584D01*
X000810Y004485D02*
X000350Y004485D01*
X000350Y004387D02*
X000810Y004387D01*
X000810Y004288D02*
X000350Y004288D01*
X000350Y004190D02*
X000810Y004190D01*
X000810Y004091D02*
X000350Y004091D01*
X000350Y003993D02*
X000810Y003993D01*
X000810Y003894D02*
X000350Y003894D01*
X000350Y003796D02*
X000810Y003796D01*
X000810Y003697D02*
X000350Y003697D01*
X000350Y003599D02*
X000810Y003599D01*
X000810Y003500D02*
X000350Y003500D01*
X000350Y003402D02*
X000810Y003402D01*
X000810Y003303D02*
X000350Y003303D01*
X000350Y003205D02*
X000810Y003205D01*
X000810Y003106D02*
X000350Y003106D01*
X000350Y003008D02*
X000810Y003008D01*
X000810Y002909D02*
X000350Y002909D01*
X000350Y002811D02*
X000810Y002811D01*
X000810Y002712D02*
X000350Y002712D01*
X000350Y002614D02*
X000810Y002614D01*
X000810Y002515D02*
X000350Y002515D01*
X000350Y002417D02*
X000810Y002417D01*
X000810Y002318D02*
X000350Y002318D01*
X000350Y002220D02*
X000810Y002220D01*
X000881Y002121D02*
X000350Y002121D01*
X000350Y002023D02*
X000979Y002023D01*
X001078Y001924D02*
X000350Y001924D01*
X000350Y001826D02*
X001087Y001826D01*
X001087Y001727D02*
X000350Y001727D01*
X000350Y001629D02*
X001087Y001629D01*
X001087Y001530D02*
X000350Y001530D01*
X000350Y001432D02*
X001087Y001432D01*
X001087Y001333D02*
X000350Y001333D01*
X000350Y001235D02*
X001087Y001235D01*
X001087Y001136D02*
X000350Y001136D01*
X000350Y001038D02*
X001087Y001038D01*
X001087Y000939D02*
X000350Y000939D01*
X000350Y000841D02*
X001087Y000841D01*
X001087Y000742D02*
X000350Y000742D01*
X000350Y000644D02*
X001087Y000644D01*
X000350Y000545D02*
X024320Y000545D01*
X024320Y000447D02*
X000350Y000447D01*
X000350Y004978D02*
X000810Y004978D01*
X000878Y005076D02*
X000350Y005076D01*
X000350Y005175D02*
X000977Y005175D01*
X001075Y005273D02*
X000350Y005273D01*
X000350Y005372D02*
X001174Y005372D01*
X001272Y005470D02*
X000350Y005470D01*
X000350Y005569D02*
X001371Y005569D01*
X001469Y005667D02*
X000350Y005667D01*
X000350Y005766D02*
X001568Y005766D01*
X001666Y005864D02*
X000350Y005864D01*
X000350Y005963D02*
X001765Y005963D01*
X001863Y006061D02*
X000350Y006061D01*
X000350Y006160D02*
X001962Y006160D01*
X002060Y006258D02*
X000350Y006258D01*
X000350Y006357D02*
X002159Y006357D01*
X002257Y006455D02*
X000350Y006455D01*
X000350Y006554D02*
X002300Y006554D01*
X002300Y006652D02*
X000350Y006652D01*
X000350Y006751D02*
X002300Y006751D01*
X002354Y006849D02*
X000350Y006849D01*
X000350Y006948D02*
X002453Y006948D01*
X002847Y006948D02*
X003396Y006948D01*
X003297Y006849D02*
X002946Y006849D01*
X003000Y006751D02*
X003260Y006751D01*
X003260Y006554D02*
X003000Y006554D01*
X003000Y006652D02*
X003620Y006652D01*
X003620Y006751D02*
X003680Y006751D01*
X003680Y006849D02*
X003620Y006849D01*
X003620Y006948D02*
X003680Y006948D01*
X003293Y006455D02*
X002950Y006455D01*
X002852Y006357D02*
X003392Y006357D01*
X003560Y006258D02*
X002456Y006258D01*
X002358Y006160D02*
X003462Y006160D01*
X003363Y006061D02*
X002259Y006061D01*
X002161Y005963D02*
X003265Y005963D01*
X003166Y005864D02*
X002062Y005864D01*
X001964Y005766D02*
X003068Y005766D01*
X002969Y005667D02*
X001865Y005667D01*
X001767Y005569D02*
X002871Y005569D01*
X002772Y005470D02*
X001668Y005470D01*
X001570Y005372D02*
X002674Y005372D01*
X000350Y018866D02*
X024320Y018866D01*
X024320Y018965D02*
X000350Y018965D01*
X000350Y019063D02*
X024320Y019063D01*
X024320Y019162D02*
X000350Y019162D01*
X000350Y019260D02*
X024320Y019260D01*
X024320Y019359D02*
X000350Y019359D01*
X000350Y019457D02*
X024320Y019457D01*
X024320Y019556D02*
X000350Y019556D01*
X000350Y019654D02*
X024320Y019654D01*
X024320Y019753D02*
X000350Y019753D01*
X000350Y019851D02*
X024320Y019851D01*
X024320Y019950D02*
X000350Y019950D01*
X000350Y020048D02*
X024320Y020048D01*
X024320Y020147D02*
X000350Y020147D01*
X000350Y020245D02*
X024320Y020245D01*
X024320Y020344D02*
X000350Y020344D01*
X000350Y020442D02*
X024320Y020442D01*
X024320Y020541D02*
X000350Y020541D01*
X000350Y020639D02*
X024320Y020639D01*
X024320Y020738D02*
X000350Y020738D01*
X000350Y020836D02*
X024320Y020836D01*
X024320Y020935D02*
X000350Y020935D01*
X000350Y021033D02*
X024320Y021033D01*
X024320Y021132D02*
X000350Y021132D01*
X000350Y021230D02*
X024320Y021230D01*
X024320Y021329D02*
X000350Y021329D01*
X000350Y021427D02*
X024320Y021427D01*
X024320Y021526D02*
X000350Y021526D01*
X000350Y021624D02*
X024320Y021624D01*
X024320Y021723D02*
X000350Y021723D01*
X000350Y021821D02*
X024320Y021821D01*
X024320Y021920D02*
X000350Y021920D01*
X000350Y022018D02*
X024320Y022018D01*
X024320Y022117D02*
X000350Y022117D01*
X000350Y022215D02*
X024320Y022215D01*
X024320Y022314D02*
X000350Y022314D01*
X000350Y022412D02*
X024320Y022412D01*
X024320Y022511D02*
X000350Y022511D01*
X000350Y022609D02*
X024320Y022609D01*
X024320Y022708D02*
X000350Y022708D01*
X000350Y022806D02*
X024320Y022806D01*
X024320Y022905D02*
X000350Y022905D01*
D21*
X012650Y012150D03*
X014150Y012150D03*
X016650Y014150D03*
X021650Y012150D03*
X023650Y012150D03*
D22*
X022000Y009300D02*
X020650Y010150D01*
X020650Y008650D01*
X021300Y008300D02*
X021650Y008650D01*
X021300Y008300D02*
X021300Y006000D01*
X021650Y005650D01*
X021200Y005600D02*
X020150Y006650D01*
X020000Y006650D01*
X020000Y010800D01*
X016050Y015250D01*
X016050Y014350D01*
X015500Y014350D01*
X015459Y014347D01*
X015450Y014300D01*
X015450Y014150D01*
X015459Y014150D01*
X016050Y015250D02*
X016050Y017750D01*
X015650Y018150D01*
X015650Y018700D01*
X012500Y018700D01*
X010650Y016850D01*
X010650Y016150D01*
X010300Y015800D01*
X010300Y013300D01*
X003650Y006650D01*
X002650Y006650D02*
X000950Y004950D01*
X000950Y002250D01*
X001850Y001350D01*
X002650Y001350D01*
X002674Y001311D01*
X002650Y001350D02*
X002650Y002650D01*
X004150Y002650D01*
X004150Y003350D01*
X005650Y003350D01*
X005626Y003979D01*
X005650Y003950D01*
X005650Y003350D01*
X006350Y002650D01*
X006394Y002650D01*
X006350Y002650D02*
X006350Y002050D01*
X005650Y001350D01*
X005626Y001311D01*
X008100Y003300D02*
X008750Y002650D01*
X008906Y002650D01*
X009650Y002650D02*
X011150Y002650D01*
X011150Y003350D01*
X012650Y003350D01*
X012626Y003979D01*
X012650Y003950D01*
X012650Y003350D01*
X013350Y002650D01*
X013394Y002650D01*
X013350Y002650D02*
X013350Y002050D01*
X012650Y001350D01*
X012626Y001311D01*
X014950Y000800D02*
X015200Y000550D01*
X021200Y000550D01*
X021200Y005600D01*
X020650Y005650D02*
X018650Y005650D01*
X017800Y006500D01*
X017800Y007000D01*
X014400Y007000D01*
X013900Y007500D01*
X013900Y007700D01*
X013650Y007950D01*
X013650Y007957D01*
X013400Y007300D02*
X013400Y005450D01*
X014950Y003900D01*
X014950Y000800D01*
X016650Y001350D02*
X016674Y001311D01*
X016650Y001350D02*
X016650Y002650D01*
X018150Y002650D01*
X018150Y003350D01*
X019650Y003350D01*
X019626Y003979D01*
X019650Y003950D01*
X019650Y003350D01*
X020350Y002650D01*
X020394Y002650D01*
X020350Y002650D02*
X020350Y002050D01*
X019650Y001350D01*
X019626Y001311D01*
X016650Y002650D02*
X016650Y003950D01*
X016674Y003979D01*
X016700Y004000D01*
X016700Y006200D01*
X017150Y006650D01*
X017150Y007150D02*
X018150Y007150D01*
X018150Y006650D01*
X020000Y006650D01*
X021650Y006650D02*
X022000Y007000D01*
X022000Y009300D01*
X020650Y010150D02*
X020650Y010650D01*
X019650Y010650D02*
X018700Y011600D01*
X018700Y011900D01*
X015350Y011900D01*
X014550Y012700D01*
X014550Y012800D01*
X014544Y012841D01*
X014150Y012841D02*
X014150Y012550D01*
X014900Y012050D01*
X014900Y009400D01*
X017150Y007150D01*
X015100Y006300D02*
X015100Y003300D01*
X015750Y002650D01*
X015906Y002650D01*
X012626Y003979D02*
X012600Y004000D01*
X012600Y005700D01*
X011650Y006650D01*
X011300Y007300D02*
X013400Y007300D01*
X011900Y008500D02*
X015100Y006300D01*
X011900Y008500D02*
X011900Y014300D01*
X012800Y014300D01*
X012841Y014347D01*
X012800Y014700D02*
X012841Y014741D01*
X012800Y014700D02*
X010600Y014700D01*
X010600Y007150D01*
X008100Y004650D01*
X008100Y003300D01*
X009650Y002650D02*
X009650Y001350D01*
X009674Y001311D01*
X009650Y002650D02*
X009650Y003950D01*
X009674Y003979D01*
X010650Y006650D02*
X011300Y007300D01*
X013650Y011343D02*
X013650Y011550D01*
X013350Y012250D01*
X012600Y012500D01*
X012600Y013950D01*
X012800Y013950D01*
X012841Y013953D01*
X012800Y014900D02*
X012841Y014937D01*
X012800Y014900D02*
X010450Y014900D01*
X010450Y012950D01*
X002200Y004700D01*
X001100Y004700D01*
X001100Y003300D01*
X001750Y002650D01*
X001906Y002650D01*
X002650Y002650D02*
X002650Y003950D01*
X002674Y003979D01*
X013350Y012250D02*
X014150Y012550D01*
X014150Y015459D02*
X014150Y015600D01*
X013600Y016150D01*
X010650Y016150D01*
X010800Y016300D02*
X010800Y016800D01*
X012550Y018550D01*
X014450Y018550D01*
X015250Y018550D01*
X015250Y017700D01*
X015650Y017300D01*
X015650Y017150D01*
X015200Y017550D02*
X014650Y018100D01*
X014650Y018150D01*
X014250Y018350D02*
X014250Y017750D01*
X013650Y017750D01*
X013250Y017350D01*
X013250Y016950D01*
X014500Y015700D01*
X014500Y015500D01*
X014544Y015459D01*
X014700Y015500D02*
X014741Y015459D01*
X014700Y015500D02*
X014700Y017100D01*
X014650Y017150D01*
X014950Y016850D02*
X015050Y016950D01*
X015050Y017350D01*
X014850Y017550D01*
X013650Y017550D01*
X013650Y017150D01*
X013100Y017000D02*
X013100Y017600D01*
X013650Y018150D01*
X014250Y018350D02*
X014450Y018550D01*
X015200Y017550D02*
X015200Y015550D01*
X015150Y015500D01*
X015134Y015459D01*
X014950Y015500D02*
X014937Y015459D01*
X014950Y015500D02*
X014950Y016850D01*
X014300Y015700D02*
X013100Y016900D01*
X013100Y017000D01*
X011500Y017000D01*
X011150Y016650D01*
X011500Y016650D02*
X011500Y016500D01*
X011300Y016300D01*
X010800Y016300D01*
X011500Y016650D02*
X012150Y016650D01*
X014300Y015700D02*
X014300Y015500D01*
X014347Y015459D01*
D23*
X001150Y010150D03*
D24*
X001150Y008650D03*
X001150Y012150D03*
X024150Y008150D03*
D25*
X001150Y013650D03*
M02*
