G75*
G70*
%OFA0B0*%
%FSLAX24Y24*%
%IPPOS*%
%LPD*%
%AMOC8*
5,1,8,0,0,1.08239X$1,22.5*
%
%ADD10C,0.0099*%
%ADD11C,0.0205*%
%ADD12C,0.1575*%
%ADD13R,0.1319X0.1319*%
%ADD14OC8,0.0560*%
%ADD15R,0.0946X0.0316*%
%ADD16R,0.0316X0.0946*%
%ADD17C,0.0560*%
%ADD18OC8,0.0680*%
%ADD19C,0.0456*%
%ADD20OC8,0.0730*%
%ADD21OC8,0.0456*%
%ADD22OC8,0.0789*%
D10*
X013116Y012712D02*
X013116Y012970D01*
X013216Y012970D01*
X013216Y012712D01*
X013116Y012712D01*
X013116Y012810D02*
X013216Y012810D01*
X013216Y012908D02*
X013116Y012908D01*
X013313Y012970D02*
X013313Y012712D01*
X013313Y012970D02*
X013413Y012970D01*
X013413Y012712D01*
X013313Y012712D01*
X013313Y012810D02*
X013413Y012810D01*
X013413Y012908D02*
X013313Y012908D01*
X013509Y012970D02*
X013509Y012712D01*
X013509Y012970D02*
X013609Y012970D01*
X013609Y012712D01*
X013509Y012712D01*
X013509Y012810D02*
X013609Y012810D01*
X013609Y012908D02*
X013509Y012908D01*
X013706Y012970D02*
X013706Y012712D01*
X013706Y012970D02*
X013806Y012970D01*
X013806Y012712D01*
X013706Y012712D01*
X013706Y012810D02*
X013806Y012810D01*
X013806Y012908D02*
X013706Y012908D01*
X013903Y012970D02*
X013903Y012712D01*
X013903Y012970D02*
X014003Y012970D01*
X014003Y012712D01*
X013903Y012712D01*
X013903Y012810D02*
X014003Y012810D01*
X014003Y012908D02*
X013903Y012908D01*
X014100Y012970D02*
X014100Y012712D01*
X014100Y012970D02*
X014200Y012970D01*
X014200Y012712D01*
X014100Y012712D01*
X014100Y012810D02*
X014200Y012810D01*
X014200Y012908D02*
X014100Y012908D01*
X014297Y012970D02*
X014297Y012712D01*
X014297Y012970D02*
X014397Y012970D01*
X014397Y012712D01*
X014297Y012712D01*
X014297Y012810D02*
X014397Y012810D01*
X014397Y012908D02*
X014297Y012908D01*
X014494Y012970D02*
X014494Y012712D01*
X014494Y012970D02*
X014594Y012970D01*
X014594Y012712D01*
X014494Y012712D01*
X014494Y012810D02*
X014594Y012810D01*
X014594Y012908D02*
X014494Y012908D01*
X014691Y012970D02*
X014691Y012712D01*
X014691Y012970D02*
X014791Y012970D01*
X014791Y012712D01*
X014691Y012712D01*
X014691Y012810D02*
X014791Y012810D01*
X014791Y012908D02*
X014691Y012908D01*
X014887Y012970D02*
X014887Y012712D01*
X014887Y012970D02*
X014987Y012970D01*
X014987Y012712D01*
X014887Y012712D01*
X014887Y012810D02*
X014987Y012810D01*
X014987Y012908D02*
X014887Y012908D01*
X015084Y012970D02*
X015084Y012712D01*
X015084Y012970D02*
X015184Y012970D01*
X015184Y012712D01*
X015084Y012712D01*
X015084Y012810D02*
X015184Y012810D01*
X015184Y012908D02*
X015084Y012908D01*
X015330Y013116D02*
X015330Y013216D01*
X015588Y013216D01*
X015588Y013116D01*
X015330Y013116D01*
X015330Y013214D02*
X015588Y013214D01*
X015330Y013313D02*
X015330Y013413D01*
X015588Y013413D01*
X015588Y013313D01*
X015330Y013313D01*
X015330Y013411D02*
X015588Y013411D01*
X015330Y013509D02*
X015330Y013609D01*
X015588Y013609D01*
X015588Y013509D01*
X015330Y013509D01*
X015330Y013607D02*
X015588Y013607D01*
X015330Y013706D02*
X015330Y013806D01*
X015588Y013806D01*
X015588Y013706D01*
X015330Y013706D01*
X015330Y013804D02*
X015588Y013804D01*
X015330Y013903D02*
X015330Y014003D01*
X015588Y014003D01*
X015588Y013903D01*
X015330Y013903D01*
X015330Y014001D02*
X015588Y014001D01*
X015330Y014100D02*
X015330Y014200D01*
X015588Y014200D01*
X015588Y014100D01*
X015330Y014100D01*
X015330Y014198D02*
X015588Y014198D01*
X015330Y014297D02*
X015330Y014397D01*
X015588Y014397D01*
X015588Y014297D01*
X015330Y014297D01*
X015330Y014395D02*
X015588Y014395D01*
X015330Y014494D02*
X015330Y014594D01*
X015588Y014594D01*
X015588Y014494D01*
X015330Y014494D01*
X015330Y014592D02*
X015588Y014592D01*
X015330Y014691D02*
X015330Y014791D01*
X015588Y014791D01*
X015588Y014691D01*
X015330Y014691D01*
X015330Y014789D02*
X015588Y014789D01*
X015330Y014887D02*
X015330Y014987D01*
X015588Y014987D01*
X015588Y014887D01*
X015330Y014887D01*
X015330Y014985D02*
X015588Y014985D01*
X015330Y015084D02*
X015330Y015184D01*
X015588Y015184D01*
X015588Y015084D01*
X015330Y015084D01*
X015330Y015182D02*
X015588Y015182D01*
X015084Y015330D02*
X015084Y015588D01*
X015184Y015588D01*
X015184Y015330D01*
X015084Y015330D01*
X015084Y015428D02*
X015184Y015428D01*
X015184Y015526D02*
X015084Y015526D01*
X014887Y015588D02*
X014887Y015330D01*
X014887Y015588D02*
X014987Y015588D01*
X014987Y015330D01*
X014887Y015330D01*
X014887Y015428D02*
X014987Y015428D01*
X014987Y015526D02*
X014887Y015526D01*
X014691Y015588D02*
X014691Y015330D01*
X014691Y015588D02*
X014791Y015588D01*
X014791Y015330D01*
X014691Y015330D01*
X014691Y015428D02*
X014791Y015428D01*
X014791Y015526D02*
X014691Y015526D01*
X014494Y015588D02*
X014494Y015330D01*
X014494Y015588D02*
X014594Y015588D01*
X014594Y015330D01*
X014494Y015330D01*
X014494Y015428D02*
X014594Y015428D01*
X014594Y015526D02*
X014494Y015526D01*
X014297Y015588D02*
X014297Y015330D01*
X014297Y015588D02*
X014397Y015588D01*
X014397Y015330D01*
X014297Y015330D01*
X014297Y015428D02*
X014397Y015428D01*
X014397Y015526D02*
X014297Y015526D01*
X014100Y015588D02*
X014100Y015330D01*
X014100Y015588D02*
X014200Y015588D01*
X014200Y015330D01*
X014100Y015330D01*
X014100Y015428D02*
X014200Y015428D01*
X014200Y015526D02*
X014100Y015526D01*
X013903Y015588D02*
X013903Y015330D01*
X013903Y015588D02*
X014003Y015588D01*
X014003Y015330D01*
X013903Y015330D01*
X013903Y015428D02*
X014003Y015428D01*
X014003Y015526D02*
X013903Y015526D01*
X013706Y015588D02*
X013706Y015330D01*
X013706Y015588D02*
X013806Y015588D01*
X013806Y015330D01*
X013706Y015330D01*
X013706Y015428D02*
X013806Y015428D01*
X013806Y015526D02*
X013706Y015526D01*
X013509Y015588D02*
X013509Y015330D01*
X013509Y015588D02*
X013609Y015588D01*
X013609Y015330D01*
X013509Y015330D01*
X013509Y015428D02*
X013609Y015428D01*
X013609Y015526D02*
X013509Y015526D01*
X013313Y015588D02*
X013313Y015330D01*
X013313Y015588D02*
X013413Y015588D01*
X013413Y015330D01*
X013313Y015330D01*
X013313Y015428D02*
X013413Y015428D01*
X013413Y015526D02*
X013313Y015526D01*
X013116Y015588D02*
X013116Y015330D01*
X013116Y015588D02*
X013216Y015588D01*
X013216Y015330D01*
X013116Y015330D01*
X013116Y015428D02*
X013216Y015428D01*
X013216Y015526D02*
X013116Y015526D01*
X012712Y015184D02*
X012712Y015084D01*
X012712Y015184D02*
X012970Y015184D01*
X012970Y015084D01*
X012712Y015084D01*
X012712Y015182D02*
X012970Y015182D01*
X012712Y014987D02*
X012712Y014887D01*
X012712Y014987D02*
X012970Y014987D01*
X012970Y014887D01*
X012712Y014887D01*
X012712Y014985D02*
X012970Y014985D01*
X012712Y014791D02*
X012712Y014691D01*
X012712Y014791D02*
X012970Y014791D01*
X012970Y014691D01*
X012712Y014691D01*
X012712Y014789D02*
X012970Y014789D01*
X012712Y014594D02*
X012712Y014494D01*
X012712Y014594D02*
X012970Y014594D01*
X012970Y014494D01*
X012712Y014494D01*
X012712Y014592D02*
X012970Y014592D01*
X012712Y014397D02*
X012712Y014297D01*
X012712Y014397D02*
X012970Y014397D01*
X012970Y014297D01*
X012712Y014297D01*
X012712Y014395D02*
X012970Y014395D01*
X012712Y014200D02*
X012712Y014100D01*
X012712Y014200D02*
X012970Y014200D01*
X012970Y014100D01*
X012712Y014100D01*
X012712Y014198D02*
X012970Y014198D01*
X012712Y014003D02*
X012712Y013903D01*
X012712Y014003D02*
X012970Y014003D01*
X012970Y013903D01*
X012712Y013903D01*
X012712Y014001D02*
X012970Y014001D01*
X012712Y013806D02*
X012712Y013706D01*
X012712Y013806D02*
X012970Y013806D01*
X012970Y013706D01*
X012712Y013706D01*
X012712Y013804D02*
X012970Y013804D01*
X012712Y013609D02*
X012712Y013509D01*
X012712Y013609D02*
X012970Y013609D01*
X012970Y013509D01*
X012712Y013509D01*
X012712Y013607D02*
X012970Y013607D01*
X012712Y013413D02*
X012712Y013313D01*
X012712Y013413D02*
X012970Y013413D01*
X012970Y013313D01*
X012712Y013313D01*
X012712Y013411D02*
X012970Y013411D01*
X012712Y013216D02*
X012712Y013116D01*
X012712Y013216D02*
X012970Y013216D01*
X012970Y013116D01*
X012712Y013116D01*
X012712Y013214D02*
X012970Y013214D01*
D11*
X013228Y013228D02*
X013228Y015072D01*
X015072Y015072D01*
X015072Y013228D01*
X013228Y013228D01*
X013228Y013432D02*
X015072Y013432D01*
X015072Y013636D02*
X013228Y013636D01*
X013228Y013840D02*
X015072Y013840D01*
X015072Y014044D02*
X013228Y014044D01*
X013228Y014248D02*
X015072Y014248D01*
X015072Y014452D02*
X013228Y014452D01*
X013228Y014656D02*
X015072Y014656D01*
X015072Y014860D02*
X013228Y014860D01*
X013228Y015064D02*
X015072Y015064D01*
D12*
X018150Y002650D03*
X011150Y002650D03*
X004150Y002650D03*
D13*
X001906Y002650D03*
X006394Y002650D03*
X008906Y002650D03*
X013394Y002650D03*
X015906Y002650D03*
X020394Y002650D03*
D14*
X020650Y005650D03*
X020650Y006650D03*
X021650Y006650D03*
X021650Y005650D03*
X021650Y008650D03*
X020650Y008650D03*
X020650Y010650D03*
X019650Y010650D03*
X018150Y006650D03*
X017150Y006650D03*
X011650Y006650D03*
X010650Y006650D03*
X003650Y006650D03*
X002650Y006650D03*
X011150Y016650D03*
X012150Y016650D03*
X026150Y011650D03*
X026150Y010650D03*
D15*
X016343Y010650D03*
X016343Y010150D03*
X016343Y009650D03*
X016343Y009150D03*
X016343Y008650D03*
X012957Y008650D03*
X012957Y009150D03*
X012957Y009650D03*
X012957Y010150D03*
X012957Y010650D03*
D16*
X013650Y011343D03*
X014150Y011343D03*
X014650Y011343D03*
X015150Y011343D03*
X015650Y011343D03*
X015650Y007957D03*
X015150Y007957D03*
X014650Y007957D03*
X014150Y007957D03*
X013650Y007957D03*
D17*
X007890Y014650D02*
X007410Y014650D01*
X007410Y016650D02*
X007890Y016650D01*
X022410Y003650D02*
X022890Y003650D01*
X022890Y001650D02*
X022410Y001650D01*
D18*
X015650Y017150D03*
X015650Y018150D03*
X014650Y018150D03*
X014650Y017150D03*
X013650Y017150D03*
X013650Y018150D03*
D19*
X016650Y014150D03*
X014150Y012150D03*
X012650Y012150D03*
X021650Y012150D03*
X023650Y012150D03*
D20*
X001150Y010150D03*
D21*
X001150Y008650D03*
X001150Y012150D03*
X024150Y008150D03*
D22*
X001150Y013650D03*
M02*
